{"title":"Simon &amp; Garfunkel - Bridge Over Troubled Water (Mastersound Gold","uid":5269343,"size":226619150,"categoryP":"audio","categoryS":"flac","magnet":"?xt=urn:btih:267a16043ddece36f45865e1931b3b0eb522ae67&amp;dn=Simon+%26+Garfunkel+-+Bridge+Over+Troubled+Water+%28Mastersound+Gold&amp;tr=udp%3A%2F%2Ftracker.openbittorrent.com%3A80&amp;tr=udp%3A%2F%2Fopen.demonii.com%3A1337&amp;tr=udp%3A%2F%2Ftracker.coppersurfer.tk%3A6969&amp;tr=udp%3A%2F%2Fexodus.desync.com%3A6969","seeders":2,"leechers":1,"uploader":"WhoAreU2","files":17,"time":1262992611,"description":"Simon &amp; Garfunkel - Bridge Over Troubled Water (Mastersound Gold CD) FLAC\n\n\nTrack  1\n\n     Filename C:UsersdirkDocumentsBridge Over Troubled Water.wav\n\n     Pre-gap length  0:00:02.00\n\n     Peak level 71.7 %\n     Track quality 99.8 %\n     Test CRC 257C89AB\n     Copy CRC 257C89AB\n     Accurately ripped (confidence 3)  [63FF61CB]\n     Copy OK\n\nTrack  2\n\n     Filename C:UsersdirkDocumentsEl Condor Pasa.wav\n\n     Pre-gap length  0:00:03.20\n\n     Peak level 58.0 %\n     Track quality 100.0 %\n     Test CRC 9B9CC104\n     Copy CRC 9B9CC104\n     Accurately ripped (confidence 3)  [10302B05]\n     Copy OK\n\nTrack  3\n\n     Filename C:UsersdirkDocumentsCecilia.wav\n\n     Pre-gap length  0:00:02.56\n\n     Peak level 86.4 %\n     Track quality 100.0 %\n     Test CRC A1C3DA51\n     Copy CRC A1C3DA51\n     Accurately ripped (confidence 4)  [6F37FA7B]\n     Copy OK\n\nTrack  4\n\n     Filename C:UsersdirkDocumentsKeep the Customer Satisfied.wav\n\n     Peak level 89.2 %\n     Track quality 100.0 %\n     Test CRC 74DAD5AA\n     Copy CRC 74DAD5AA\n     Accurately ripped (confidence 3)  [02F464DD]\n     Copy OK\n\nTrack  5\n\n     Filename C:UsersdirkDocumentsSo Long, Frank Lloyd Wright.wav\n\n     Pre-gap length  0:00:03.00\n\n     Peak level 54.1 %\n     Track quality 100.0 %\n     Test CRC EB9929E8\n     Copy CRC EB9929E8\n     Accurately ripped (confidence 3)  [16E7A756]\n     Copy OK\n\nTrack  6\n\n     Filename C:UsersdirkDocumentsThe Boxer.wav\n\n     Pre-gap length  0:00:04.42\n\n     Peak level 62.5 %\n     Track quality 100.0 %\n     Test CRC 409FDC19\n     Copy CRC 409FDC19\n     Accurately ripped (confidence 3)  [414358C3]\n     Copy OK\n\nTrack  7\n\n     Filename C:UsersdirkDocumentsBaby Driver.wav\n\n     Pre-gap length  0:00:04.04\n\n     Peak level 91.9 %\n     Track quality 100.0 %\n     Test CRC FD8208E0\n     Copy CRC FD8208E0\n     Accurately ripped (confidence 3)  [292262AF]\n     Copy OK\n\nTrack  8\n\n     Filename C:UsersdirkDocumentsThe Only Living Boy In New York.wav\n\n     Pre-gap length  0:00:02.17\n\n     Peak level 82.2 %\n     Track quality 100.0 %\n     Test CRC B02C971F\n     Copy CRC B02C971F\n     Accurately ripped (confidence 3)  [8D9B90A8]\n     Copy OK\n\nTrack  9\n\n     Filename C:UsersdirkDocumentsWhy Don't You Write Me.wav\n\n     Pre-gap length  0:00:03.66\n\n     Peak level 86.9 %\n     Track quality 100.0 %\n     Test CRC 38E63D93\n     Copy CRC 38E63D93\n     Accurately ripped (confidence 3)  [E5B3E9FD]\n     Copy OK\n\nTrack 10\n\n     Filename C:UsersdirkDocumentsBye Bye Love.wav\n\n     Peak level 82.5 %\n     Track quality 100.0 %\n     Test CRC 61F5A3E1\n     Copy CRC 61F5A3E1\n     Accurately ripped (confidence 3)  [B5581142]\n     Copy OK\n\nTrack 11\n\n     Filename C:UsersdirkDocumentsSong For The Asking.wav\n\n     Peak level 50.9 %\n     Track quality 100.0 %\n     Test CRC C4446A61\n     Copy CRC C4446A61\n     Accurately ripped (confidence 3)  [9432CDF3]\n     Copy OK\n\n","torrent":{"xt":"urn:btih:267a16043ddece36f45865e1931b3b0eb522ae67","amp;dn":"Simon+%26+Garfunkel+-+Bridge+Over+Troubled+Water+%28Mastersound+Gold","amp;tr":["udp%3A%2F%2Ftracker.openbittorrent.com%3A80","udp%3A%2F%2Fopen.demonii.com%3A1337","udp%3A%2F%2Ftracker.coppersurfer.tk%3A6969","udp%3A%2F%2Fexodus.desync.com%3A6969"],"infoHash":"267a16043ddece36f45865e1931b3b0eb522ae67","infoHashBuffer":{"type":"Buffer","data":[38,122,22,4,61,222,206,54,244,88,101,225,147,27,59,14,181,34,174,103]},"announce":[],"urlList":[]}}